<svg width="68" height="68" viewBox="0 0 68 68" fill="none" xmlns="http://www.w3.org/2000/svg">
<path d="M46.9548 61.1658C47.4073 62.1147 47.0068 63.2563 46.0327 63.6516C40.2221 66.0097 33.8316 66.6136 27.6577 65.3652C20.8605 63.9908 14.6938 60.4454 10.0859 55.263C5.47796 50.0805 2.67827 43.5414 2.1083 36.6301C1.53833 29.7188 3.22893 22.8094 6.92558 16.942C10.6222 11.0747 16.1249 6.56701 22.605 4.09759C29.0852 1.62817 36.1922 1.33068 42.8561 3.24989C49.52 5.16911 55.3801 9.20117 59.5542 14.739C63.3455 19.7691 65.5594 25.7941 65.9408 32.0534C66.0047 33.1027 65.1478 33.9568 64.0967 33.9583L37.0118 33.9958C35.6135 33.9978 34.6945 35.4563 35.2964 36.7185L46.9548 61.1658Z" fill="#199FA8"/>
<path d="M64.1451 36.3065C65.1771 36.3328 66.0069 37.1779 65.9389 38.208C65.6326 42.8441 64.1817 47.341 61.7051 51.2853C59.2273 55.2313 55.8125 58.4815 51.7809 60.7501C50.8866 61.2533 49.7727 60.8766 49.2989 59.9664L38.108 38.4697C37.4385 37.1837 38.3953 35.6512 39.8447 35.6881L64.1451 36.3065Z" fill="#E7590A"/>
<path d="M27.5049 66.1213C33.8276 67.3998 40.3721 66.7813 46.3228 64.3663C47.7365 63.7926 48.2813 62.1554 47.6511 60.8338L35.9927 36.3864C35.6347 35.6358 36.1812 34.7684 37.0128 34.7672L64.0977 34.7296C65.5619 34.7276 66.8035 33.5294 66.7107 32.0065C66.3202 25.5963 64.0529 19.426 60.1702 14.2747C55.8955 8.60338 49.8942 4.47413 43.0696 2.50865C36.2451 0.543165 28.9668 0.847832 22.3304 3.37678C15.694 5.90573 10.0587 10.5221 6.27294 16.5309C2.48718 22.5396 0.755823 29.6156 1.33953 36.6935C1.92324 43.7714 4.79042 50.4681 9.50941 55.7755C14.2284 61.0829 20.5438 64.7137 27.5049 66.1213ZM62.3583 51.6955C64.9033 47.6424 66.3939 43.0221 66.7086 38.2588C66.8077 36.758 65.6007 35.572 64.1647 35.5354L39.8643 34.917C37.8275 34.8651 36.4829 37.0187 37.4238 38.8259L48.6147 60.3226C49.2739 61.589 50.8558 62.1557 52.1592 61.4223C56.3029 59.0907 59.8122 55.7503 62.3583 51.6955Z" stroke="white" stroke-width="1.54275"/>
<mask id="path-3-inside-1_5_16" fill="white">
<path d="M45.6491 58.4278C46.8227 60.8888 45.7841 63.876 43.172 64.6574C38.1611 66.1565 32.8333 66.4117 27.6577 65.3652C20.8605 63.9907 14.6938 60.4454 10.0858 55.263C5.47793 50.0805 2.67824 43.5414 2.10827 36.6301C1.5383 29.7188 3.2289 22.8094 6.92555 16.942C10.6222 11.0747 16.1248 6.56701 22.605 4.09759C29.0852 1.62817 36.1922 1.33067 42.8561 3.24989C49.52 5.16911 55.3801 9.20116 59.5542 14.739C62.7324 18.9558 64.8022 23.8717 65.6131 29.0388C66.0358 31.7323 63.7897 33.9587 61.0632 33.9625L41.8117 33.9892C38.1849 33.9942 35.8013 37.7773 37.3625 41.051L45.6491 58.4278Z"/>
</mask>
<path d="M45.6491 58.4278C46.8227 60.8888 45.7841 63.876 43.172 64.6574C38.1611 66.1565 32.8333 66.4117 27.6577 65.3652C20.8605 63.9907 14.6938 60.4454 10.0858 55.263C5.47793 50.0805 2.67824 43.5414 2.10827 36.6301C1.5383 29.7188 3.2289 22.8094 6.92555 16.942C10.6222 11.0747 16.1248 6.56701 22.605 4.09759C29.0852 1.62817 36.1922 1.33067 42.8561 3.24989C49.52 5.16911 55.3801 9.20116 59.5542 14.739C62.7324 18.9558 64.8022 23.8717 65.6131 29.0388C66.0358 31.7323 63.7897 33.9587 61.0632 33.9625L41.8117 33.9892C38.1849 33.9942 35.8013 37.7773 37.3625 41.051L45.6491 58.4278Z" fill="#199FA8" stroke="#199FA8" stroke-width="5.5539" mask="url(#path-3-inside-1_5_16)"/>
<path d="M64.2211 40.9067C63.6315 44.3183 62.3823 47.5956 60.5292 50.5469C58.673 53.5031 56.2638 56.0477 53.4511 58.0482C52.1022 59.0077 50.0955 58.4897 49.1764 56.7242L41.7156 42.3927C40.4675 39.9952 42.2512 37.1383 44.9532 37.207L61.1535 37.6193C63.1549 37.6703 64.5051 39.2635 64.2211 40.9067Z" fill="#E7590A" stroke="#E7590A" stroke-width="2.77695"/>
</svg>
