<svg width="174" height="26" viewBox="0 0 174 26" fill="none" xmlns="http://www.w3.org/2000/svg">
<g clip-path="url(#clip0_5_8)">
<path d="M20.8581 23.1872C21.0277 23.543 20.8775 23.9711 20.5123 24.1193C18.3333 25.0036 15.9368 25.2301 13.6216 24.7619C11.0727 24.2465 8.76017 22.917 7.0322 20.9736C5.30423 19.0302 4.25435 16.578 4.04061 13.9863C3.82687 11.3945 4.46085 8.80351 5.84709 6.60326C7.23333 4.40301 9.29682 2.71263 11.7269 1.7866C14.157 0.860564 16.8221 0.749003 19.321 1.46871C21.82 2.18842 24.0175 3.70044 25.5828 5.77714C27.0045 7.6634 27.8348 9.9228 27.9778 12.27C28.0018 12.6635 27.6804 12.9838 27.2862 12.9843L17.1294 12.9984C16.605 12.9992 16.2604 13.5461 16.4861 14.0194L20.8581 23.1872Z" fill="#199FA8"/>
<path d="M27.3044 13.8649C27.6914 13.8748 28.0026 14.1917 27.9771 14.578C27.8622 16.3165 27.3181 18.0028 26.3894 19.482C25.4602 20.9617 24.1797 22.1806 22.6678 23.0313C22.3325 23.22 21.9148 23.0787 21.7371 22.7374L17.5405 14.6761C17.2894 14.1939 17.6482 13.6192 18.1917 13.633L27.3044 13.8649Z" fill="#E7590A"/>
<path d="M13.5995 24.8712C15.9363 25.3438 18.355 25.1152 20.5542 24.2227C20.983 24.0486 21.1541 23.5489 20.9587 23.1392L16.5868 13.9714C16.3964 13.5721 16.6871 13.1106 17.1296 13.11L27.2864 13.0959C27.7403 13.0952 28.1172 12.7252 28.0891 12.2632C27.9448 9.8942 27.1068 7.6138 25.6719 5.71001C24.0921 3.61401 21.8741 2.08794 19.3519 1.36154C16.8297 0.635147 14.1398 0.747744 11.6872 1.68238C9.23452 2.61702 7.15186 4.32312 5.75273 6.54381C4.35361 8.76451 3.71374 11.3796 3.92946 13.9954C4.14519 16.6113 5.20483 19.0862 6.94886 21.0477C8.69289 23.0092 11.0269 24.351 13.5995 24.8712ZM26.4838 19.5413C27.4225 18.0464 27.9723 16.3423 28.0883 14.5853C28.1184 14.131 27.7526 13.7648 27.3072 13.7535L18.1946 13.5215C17.5661 13.5055 17.1513 14.17 17.4416 14.7276L21.6382 22.7889C21.8426 23.1817 22.328 23.3504 22.7225 23.1285C24.2506 22.2686 25.5448 21.0368 26.4838 19.5413Z" stroke="white" stroke-width="0.223048"/>
<mask id="path-3-inside-1_5_8" fill="white">
<path d="M20.858 23.1872C21.0277 23.543 20.8775 23.9711 20.5122 24.1193C18.3333 25.0036 15.9368 25.2301 13.6216 24.7619C11.0727 24.2465 8.76016 22.917 7.03219 20.9736C5.30422 19.0302 4.25434 16.578 4.0406 13.9863C3.82686 11.3945 4.46084 8.80351 5.84708 6.60326C7.23332 4.40301 9.29681 2.71263 11.7269 1.7866C14.1569 0.860563 16.8221 0.749002 19.321 1.46871C21.82 2.18841 24.0175 3.70043 25.5828 5.77714C27.0045 7.6634 27.8348 9.9228 27.9778 12.27C28.0017 12.6635 27.6804 12.9838 27.2862 12.9843L17.1294 12.9984C16.605 12.9992 16.2604 13.5461 16.4861 14.0194L20.858 23.1872Z"/>
</mask>
<path d="M20.858 23.1872C21.0277 23.543 20.8775 23.9711 20.5122 24.1193C18.3333 25.0036 15.9368 25.2301 13.6216 24.7619C11.0727 24.2465 8.76016 22.917 7.03219 20.9736C5.30422 19.0302 4.25434 16.578 4.0406 13.9863C3.82686 11.3945 4.46084 8.80351 5.84708 6.60326C7.23332 4.40301 9.29681 2.71263 11.7269 1.7866C14.1569 0.860563 16.8221 0.749002 19.321 1.46871C21.82 2.18841 24.0175 3.70043 25.5828 5.77714C27.0045 7.6634 27.8348 9.9228 27.9778 12.27C28.0017 12.6635 27.6804 12.9838 27.2862 12.9843L17.1294 12.9984C16.605 12.9992 16.2604 13.5461 16.4861 14.0194L20.858 23.1872Z" fill="#199FA8" stroke="#199FA8" stroke-width="0.802974" mask="url(#path-3-inside-1_5_8)"/>
<path d="M27.7768 14.5648C27.6641 16.2703 27.1304 17.9245 26.2194 19.3753C25.308 20.8268 24.0521 22.0221 22.5694 22.8564C22.3405 22.9852 22.0446 22.8934 21.9152 22.6448L17.7186 14.5835C17.5381 14.2369 17.796 13.8238 18.1867 13.8338L27.2993 14.0657C27.5812 14.0729 27.7942 14.301 27.7768 14.5648Z" fill="#E7590A" stroke="#E7590A" stroke-width="0.401487"/>
<path d="M43.3639 18.7357C43.2066 18.3583 42.9943 17.8787 42.727 17.2969C42.4754 16.7151 42.2003 16.0861 41.9015 15.41C41.6027 14.7338 41.2804 14.042 40.9344 13.3344C40.6042 12.6111 40.2897 11.9349 39.991 11.3059C39.6922 10.6612 39.4092 10.0873 39.1419 9.58411C38.8903 9.08093 38.6859 8.69568 38.5286 8.42837C38.3556 10.2838 38.2141 12.2966 38.1041 14.4665C37.994 16.6208 37.8996 18.7986 37.821 21H35.5803C35.6432 19.5848 35.714 18.1618 35.7926 16.7308C35.8712 15.2842 35.9577 13.869 36.052 12.4853C36.1621 11.0858 36.2722 9.72563 36.3822 8.40478C36.508 7.08394 36.6417 5.83385 36.7832 4.65452H38.7881C39.2126 5.34639 39.6686 6.16406 40.1561 7.10752C40.6435 8.05099 41.131 9.04162 41.6185 10.0794C42.1059 11.1015 42.5776 12.1315 43.0336 13.1693C43.4897 14.1913 43.9063 15.1269 44.2837 15.9761C44.6611 15.1269 45.0778 14.1913 45.5338 13.1693C45.9898 12.1315 46.4616 11.1015 46.949 10.0794C47.4365 9.04162 47.9239 8.05099 48.4114 7.10752C48.8988 6.16406 49.3548 5.34639 49.7794 4.65452H51.7843C52.3189 9.92219 52.7199 15.3707 52.9872 21H50.7464C50.6678 18.7986 50.5735 16.6208 50.4634 14.4665C50.3533 12.2966 50.2118 10.2838 50.0389 8.42837C49.8816 8.69568 49.6693 9.08093 49.402 9.58411C49.1504 10.0873 48.8752 10.6612 48.5765 11.3059C48.2777 11.9349 47.9554 12.6111 47.6094 13.3344C47.2792 14.042 46.9647 14.7338 46.666 15.41C46.3672 16.0861 46.0842 16.7151 45.8169 17.2969C45.5653 17.8787 45.3609 18.3583 45.2036 18.7357H43.3639ZM55.749 14.8911C55.749 13.8061 55.9063 12.8626 56.2207 12.0607C56.5352 11.243 56.9519 10.5669 57.4708 10.0323C57.9897 9.49763 58.5873 9.09666 59.2634 8.82934C59.9396 8.56203 60.6314 8.42837 61.339 8.42837C62.9901 8.42837 64.2559 8.94727 65.1365 9.98508C66.017 11.0072 66.4573 12.5717 66.4573 14.6788C66.4573 14.7732 66.4573 14.8989 66.4573 15.0562C66.4573 15.1977 66.4494 15.3314 66.4337 15.4572H58.0369C58.1312 16.7308 58.5008 17.6979 59.1455 18.3583C59.7902 19.0187 60.7965 19.3489 62.1645 19.3489C62.935 19.3489 63.5797 19.286 64.0986 19.1602C64.6333 19.0187 65.0342 18.8851 65.3016 18.7593L65.6082 20.599C65.3409 20.7405 64.8691 20.8899 64.193 21.0472C63.5326 21.2044 62.7778 21.283 61.9287 21.283C60.8594 21.283 59.9317 21.1258 59.1455 20.8113C58.375 20.4811 57.7381 20.033 57.235 19.4669C56.7318 18.9008 56.3544 18.2325 56.1028 17.462C55.8669 16.6758 55.749 15.8188 55.749 14.8911ZM64.1694 13.6882C64.1851 12.6975 63.9335 11.8877 63.4146 11.2588C62.9115 10.6141 62.2117 10.2917 61.3154 10.2917C60.8123 10.2917 60.3641 10.3939 59.971 10.5983C59.5936 10.787 59.2713 11.0386 59.004 11.3531C58.7366 11.6676 58.5244 12.0292 58.3671 12.4381C58.2256 12.8469 58.1312 13.2636 58.0841 13.6882H64.1694ZM71.6603 8.735H76.3069V10.5747H71.6603V16.2355C71.6603 16.8488 71.7075 17.3598 71.8019 17.7686C71.8962 18.1618 72.0377 18.4762 72.2264 18.7121C72.4151 18.9322 72.651 19.0895 72.934 19.1838C73.2171 19.2782 73.5473 19.3254 73.9247 19.3254C74.5851 19.3254 75.1118 19.2546 75.505 19.1131C75.9138 18.9558 76.1968 18.8458 76.3541 18.7829L76.7786 20.599C76.5585 20.7091 76.1732 20.8428 75.6229 21C75.0725 21.173 74.4436 21.2595 73.736 21.2595C72.9026 21.2595 72.2107 21.1572 71.6603 20.9528C71.1257 20.7327 70.6933 20.4103 70.3631 19.9858C70.0329 19.5612 69.797 19.0423 69.6555 18.4291C69.5297 17.8001 69.4668 17.0768 69.4668 16.2591V5.31495L71.6603 4.93756V8.735ZM83.6268 8.47554C83.8155 8.47554 84.0278 8.49127 84.2637 8.52272C84.5153 8.53844 84.759 8.56989 84.9948 8.61706C85.2307 8.64851 85.443 8.68782 85.6317 8.735C85.8361 8.76644 85.9855 8.79789 86.0798 8.82934L85.7024 10.7399C85.5295 10.677 85.2386 10.6062 84.8297 10.5276C84.4366 10.4332 83.9256 10.3861 83.2966 10.3861C82.8878 10.3861 82.479 10.4332 82.0701 10.5276C81.677 10.6062 81.4176 10.6612 81.2918 10.6927V21H79.0982V9.2539C79.6171 9.06521 80.2618 8.89224 81.0323 8.735C81.8028 8.56203 82.6676 8.47554 83.6268 8.47554ZM90.3901 21H88.1965V8.735H90.3901V21ZM89.2815 6.51786C88.8884 6.51786 88.5503 6.39207 88.2673 6.14047C88 5.87316 87.8663 5.51936 87.8663 5.07908C87.8663 4.6388 88 4.29286 88.2673 4.04127C88.5503 3.77396 88.8884 3.6403 89.2815 3.6403C89.6746 3.6403 90.0048 3.77396 90.2722 4.04127C90.5552 4.29286 90.6967 4.6388 90.6967 5.07908C90.6967 5.51936 90.5552 5.87316 90.2722 6.14047C90.0048 6.39207 89.6746 6.51786 89.2815 6.51786ZM98.9503 2.69684C99.5007 2.69684 99.9724 2.73615 100.366 2.81477C100.759 2.87767 101.042 2.94057 101.215 3.00347L100.908 4.89039C100.735 4.82749 100.499 4.76459 100.2 4.7017C99.9017 4.62307 99.54 4.58376 99.1155 4.58376C98.0934 4.58376 97.3779 4.8668 96.9691 5.43288C96.5602 5.98323 96.3558 6.73014 96.3558 7.6736V8.735H101.073V10.5747H96.3558V21H94.1623V7.62643C94.1623 6.05399 94.5475 4.84322 95.318 3.9941C96.0885 3.12926 97.2993 2.69684 98.9503 2.69684ZM105.555 21H103.361V8.735H105.555V21ZM104.446 6.51786C104.053 6.51786 103.715 6.39207 103.432 6.14047C103.164 5.87316 103.031 5.51936 103.031 5.07908C103.031 4.6388 103.164 4.29286 103.432 4.04127C103.715 3.77396 104.053 3.6403 104.446 3.6403C104.839 3.6403 105.169 3.77396 105.437 4.04127C105.72 4.29286 105.861 4.6388 105.861 5.07908C105.861 5.51936 105.72 5.87316 105.437 6.14047C105.169 6.39207 104.839 6.51786 104.446 6.51786ZM110.922 14.8911C110.922 15.5201 110.985 16.1097 111.111 16.6601C111.237 17.1947 111.441 17.6664 111.724 18.0753C112.007 18.4684 112.369 18.7829 112.809 19.0187C113.265 19.2389 113.808 19.3489 114.437 19.3489C115.034 19.3489 115.585 19.2467 116.088 19.0423C116.591 18.8379 116.976 18.6256 117.244 18.4055V10.6691C117.023 10.6062 116.725 10.5512 116.347 10.504C115.986 10.4568 115.475 10.4332 114.814 10.4332C113.635 10.4332 112.691 10.8185 111.984 11.589C111.276 12.3595 110.922 13.4602 110.922 14.8911ZM108.634 14.8911C108.634 13.9004 108.776 13.012 109.059 12.2258C109.358 11.4239 109.774 10.7477 110.309 10.1974C110.844 9.64701 111.488 9.22245 112.243 8.92369C112.998 8.62493 113.847 8.47554 114.791 8.47554C115.813 8.47554 116.709 8.55417 117.479 8.71141C118.266 8.85293 118.918 8.98659 119.437 9.11238V25.3635H117.244V20.4575C116.976 20.6305 116.567 20.8113 116.017 21C115.482 21.1887 114.861 21.283 114.154 21.283C113.273 21.283 112.487 21.1258 111.795 20.8113C111.119 20.4968 110.545 20.0565 110.073 19.4905C109.602 18.9244 109.24 18.2482 108.988 17.462C108.752 16.6758 108.634 15.8188 108.634 14.8911ZM132.973 20.6462C132.469 20.772 131.801 20.9057 130.968 21.0472C130.15 21.1887 129.199 21.2595 128.114 21.2595C127.17 21.2595 126.376 21.1258 125.732 20.8585C125.087 20.5754 124.568 20.1823 124.175 19.6792C123.782 19.176 123.499 18.5863 123.326 17.9102C123.153 17.2183 123.066 16.4557 123.066 15.6223V8.735H125.26V15.1505C125.26 16.6444 125.496 17.7136 125.967 18.3583C126.439 19.003 127.233 19.3254 128.35 19.3254C128.586 19.3254 128.829 19.3175 129.081 19.3018C129.332 19.286 129.568 19.2703 129.788 19.2546C130.009 19.2231 130.205 19.1996 130.378 19.1838C130.567 19.1524 130.7 19.1209 130.779 19.0895V8.735H132.973V20.6462ZM136.068 14.8911C136.068 13.8061 136.225 12.8626 136.539 12.0607C136.854 11.243 137.271 10.5669 137.789 10.0323C138.308 9.49763 138.906 9.09666 139.582 8.82934C140.258 8.56203 140.95 8.42837 141.658 8.42837C143.309 8.42837 144.575 8.94727 145.455 9.98508C146.336 11.0072 146.776 12.5717 146.776 14.6788C146.776 14.7732 146.776 14.8989 146.776 15.0562C146.776 15.1977 146.768 15.3314 146.752 15.4572H138.356C138.45 16.7308 138.819 17.6979 139.464 18.3583C140.109 19.0187 141.115 19.3489 142.483 19.3489C143.254 19.3489 143.898 19.286 144.417 19.1602C144.952 19.0187 145.353 18.8851 145.62 18.7593L145.927 20.599C145.66 20.7405 145.188 20.8899 144.512 21.0472C143.851 21.2044 143.096 21.283 142.247 21.283C141.178 21.283 140.25 21.1258 139.464 20.8113C138.694 20.4811 138.057 20.033 137.554 19.4669C137.05 18.9008 136.673 18.2325 136.421 17.462C136.186 16.6758 136.068 15.8188 136.068 14.8911ZM144.488 13.6882C144.504 12.6975 144.252 11.8877 143.733 11.2588C143.23 10.6141 142.53 10.2917 141.634 10.2917C141.131 10.2917 140.683 10.3939 140.29 10.5983C139.912 10.787 139.59 11.0386 139.323 11.3531C139.055 11.6676 138.843 12.0292 138.686 12.4381C138.544 12.8469 138.45 13.2636 138.403 13.6882H144.488Z" fill="#199FA8"/>
<path d="M152.611 19.4197C153.508 19.4197 154.168 19.3018 154.593 19.0659C155.033 18.83 155.253 18.4527 155.253 17.9337C155.253 17.3991 155.041 16.9746 154.616 16.6601C154.192 16.3456 153.492 15.9918 152.517 15.5987C152.045 15.41 151.589 15.2213 151.149 15.0326C150.724 14.8282 150.355 14.5923 150.04 14.325C149.726 14.0577 149.474 13.7353 149.286 13.358C149.097 12.9806 149.003 12.5167 149.003 11.9664C149.003 10.8814 149.403 10.0244 150.205 9.39542C151.007 8.75072 152.1 8.42837 153.484 8.42837C153.83 8.42837 154.176 8.45196 154.522 8.49913C154.868 8.53058 155.19 8.57775 155.489 8.64065C155.788 8.68782 156.047 8.74286 156.267 8.80576C156.503 8.86865 156.684 8.92369 156.81 8.97086L156.409 10.8578C156.173 10.732 155.803 10.6062 155.3 10.4804C154.797 10.3389 154.192 10.2681 153.484 10.2681C152.871 10.2681 152.336 10.3939 151.88 10.6455C151.424 10.8814 151.196 11.2588 151.196 11.7777C151.196 12.045 151.243 12.2808 151.338 12.4853C151.448 12.6897 151.605 12.8784 151.809 13.0513C152.029 13.2086 152.297 13.358 152.611 13.4995C152.926 13.641 153.303 13.7904 153.743 13.9476C154.325 14.1678 154.844 14.3879 155.3 14.608C155.756 14.8125 156.141 15.0562 156.456 15.3392C156.786 15.6223 157.038 15.9682 157.211 16.377C157.384 16.7701 157.47 17.2576 157.47 17.8394C157.47 18.9716 157.046 19.8285 156.196 20.4103C155.363 20.9921 154.168 21.283 152.611 21.283C151.526 21.283 150.677 21.1887 150.064 21C149.451 20.827 149.034 20.6934 148.814 20.599L149.215 18.7121C149.466 18.8065 149.867 18.948 150.418 19.1367C150.968 19.3254 151.699 19.4197 152.611 19.4197ZM159.6 14.8911C159.6 13.8061 159.757 12.8626 160.071 12.0607C160.386 11.243 160.803 10.5669 161.322 10.0323C161.84 9.49763 162.438 9.09666 163.114 8.82934C163.79 8.56203 164.482 8.42837 165.19 8.42837C166.841 8.42837 168.107 8.94727 168.987 9.98508C169.868 11.0072 170.308 12.5717 170.308 14.6788C170.308 14.7732 170.308 14.8989 170.308 15.0562C170.308 15.1977 170.3 15.3314 170.284 15.4572H161.888C161.982 16.7308 162.351 17.6979 162.996 18.3583C163.641 19.0187 164.647 19.3489 166.015 19.3489C166.786 19.3489 167.43 19.286 167.949 19.1602C168.484 19.0187 168.885 18.8851 169.152 18.7593L169.459 20.599C169.192 20.7405 168.72 20.8899 168.044 21.0472C167.383 21.2044 166.628 21.283 165.779 21.283C164.71 21.283 163.782 21.1258 162.996 20.8113C162.226 20.4811 161.589 20.033 161.086 19.4669C160.582 18.9008 160.205 18.2325 159.953 17.462C159.718 16.6758 159.6 15.8188 159.6 14.8911ZM168.02 13.6882C168.036 12.6975 167.784 11.8877 167.265 11.2588C166.762 10.6141 166.062 10.2917 165.166 10.2917C164.663 10.2917 164.215 10.3939 163.822 10.5983C163.444 10.787 163.122 11.0386 162.855 11.3531C162.587 11.6676 162.375 12.0292 162.218 12.4381C162.076 12.8469 161.982 13.2636 161.935 13.6882H168.02Z" fill="#E7590A"/>
</g>
<defs>
<clipPath id="clip0_5_8">
<rect width="174" height="26" fill="white"/>
</clipPath>
</defs>
</svg>
